# xmcd
#
# Track frame offsets: 
#        150
#        23985
#        41527
#        70305
#        84745
#        116310
#        137565
#        157390
#        174167
#        192927
#        208087
#        222967
#        238675
#        258840
#        278155
#        306960
#
# Disc length: 4523 seconds
#
# Revision: 5
# Processed by: cddbd v1.5.2PL0 Copyright (c) Steve Scherf et al.
# Submitted via: ExactAudioCopyFreeDBPlugin 1.0
#
DISCID=e711a910
DTITLE=Various Artist - The Funk Box [box set]
DYEAR=2000
DGENRE=Funk
TTITLE0=James Brown - Get Up I Feel Like Being a Sex Machine
TTITLE1=Charles Wright and The Watts 103rd Street Rhythm Band - Express 
TTITLE1=Yourself
TTITLE2=James Brown - Give It Up or Turnit A Loose
TTITLE3=Aretha Franklin - Rock Steady
TTITLE4=War - Slippin' Into Darkness
TTITLE5=Bobby Byrd - I Know You Got Soul
TTITLE6=The Chakachas - Jungle Fever
TTITLE7=The Jimmy Castor Bunch - It's Just Begun
TTITLE8=Billy Preston - Outa-Space
TTITLE9=Lyn Collins (The Female Preacher) - Think (About It)
TTITLE10=Fatback Band - Goin' to See My Baby
TTITLE11=The J.B.'s - Pass the Peas
TTITLE12=Marvin Gaye - "T" Plays it Cool
TTITLE13=Cymande - The Message
TTITLE14=The New Birth - I Can Understand It
TTITLE15=Barry White - I'm Gonna Love You Just a Little More, Baby
EXTD=
EXTT0=
EXTT1=
EXTT2=
EXTT3=
EXTT4=
EXTT5=
EXTT6=
EXTT7=
EXTT8=
EXTT9=
EXTT10=
EXTT11=
EXTT12=
EXTT13=
EXTT14=
EXTT15=
PLAYORDER=
